<mxfile host="app.diagrams.net" modified="2023-11-23T11:59:46.111Z" agent="Mozilla/5.0 (Windows NT 10.0; Win64; x64) AppleWebKit/537.36 (KHTML, like Gecko) Chrome/119.0.0.0 Safari/537.36" etag="XjP3qa-fLSnZXrC2fi4S" version="22.1.3" type="github">
  <diagram name="Pagina-1" id="Jpi3xUjOkGHAUXoTJ0bF">
    <mxGraphModel dx="1221" dy="737" grid="1" gridSize="10" guides="1" tooltips="1" connect="1" arrows="1" fold="1" page="1" pageScale="1" pageWidth="827" pageHeight="1169" math="0" shadow="0">
      <root>
        <mxCell id="0" />
        <mxCell id="1" parent="0" />
        <mxCell id="sXy-xs8lII_dAVy6hn8z-161" value="" style="rounded=0;whiteSpace=wrap;html=1;" parent="1" vertex="1">
          <mxGeometry x="30" y="30" width="800" height="740" as="geometry" />
        </mxCell>
        <mxCell id="sXy-xs8lII_dAVy6hn8z-12" value="CHECK VALIDATION RESULT" style="shape=table;startSize=30;container=1;collapsible=0;childLayout=tableLayout;strokeColor=#b85450;fontSize=16;fillColor=#f8cecc;perimeterSpacing=0;rounded=1;shadow=0;" parent="1" vertex="1">
          <mxGeometry x="50" y="70" width="730" height="550" as="geometry" />
        </mxCell>
        <mxCell id="sXy-xs8lII_dAVy6hn8z-13" value="" style="shape=tableRow;horizontal=0;startSize=0;swimlaneHead=0;swimlaneBody=0;strokeColor=inherit;top=0;left=0;bottom=0;right=0;collapsible=0;dropTarget=0;fillColor=none;points=[[0,0.5],[1,0.5]];portConstraint=eastwest;fontSize=16;" parent="sXy-xs8lII_dAVy6hn8z-12" vertex="1">
          <mxGeometry y="30" width="730" height="86" as="geometry" />
        </mxCell>
        <mxCell id="sXy-xs8lII_dAVy6hn8z-38" value="CLASSIFIERS" style="shape=partialRectangle;html=1;whiteSpace=wrap;connectable=0;strokeColor=#d79b00;overflow=hidden;fillColor=#ffe6cc;top=0;left=0;bottom=0;right=0;pointerEvents=1;fontSize=16;fontStyle=1;" parent="sXy-xs8lII_dAVy6hn8z-13" vertex="1">
          <mxGeometry width="103" height="86" as="geometry">
            <mxRectangle width="103" height="86" as="alternateBounds" />
          </mxGeometry>
        </mxCell>
        <mxCell id="sXy-xs8lII_dAVy6hn8z-33" value="Validation error" style="shape=partialRectangle;html=1;whiteSpace=wrap;connectable=0;strokeColor=#d79b00;overflow=hidden;fillColor=#ffe6cc;top=0;left=0;bottom=0;right=0;pointerEvents=1;fontSize=16;fontStyle=1;" parent="sXy-xs8lII_dAVy6hn8z-13" vertex="1">
          <mxGeometry x="103" width="90" height="86" as="geometry">
            <mxRectangle width="90" height="86" as="alternateBounds" />
          </mxGeometry>
        </mxCell>
        <mxCell id="sXy-xs8lII_dAVy6hn8z-14" value="Training error" style="shape=partialRectangle;html=1;whiteSpace=wrap;connectable=0;strokeColor=#d79b00;overflow=hidden;fillColor=#ffe6cc;top=0;left=0;bottom=0;right=0;pointerEvents=1;fontSize=16;fontStyle=1;" parent="sXy-xs8lII_dAVy6hn8z-13" vertex="1">
          <mxGeometry x="193" width="97" height="86" as="geometry">
            <mxRectangle width="97" height="86" as="alternateBounds" />
          </mxGeometry>
        </mxCell>
        <mxCell id="sXy-xs8lII_dAVy6hn8z-15" value="Number of layers" style="shape=partialRectangle;html=1;whiteSpace=wrap;connectable=0;strokeColor=#d79b00;overflow=hidden;fillColor=#ffe6cc;top=0;left=0;bottom=0;right=0;pointerEvents=1;fontSize=16;fontStyle=1;" parent="sXy-xs8lII_dAVy6hn8z-13" vertex="1">
          <mxGeometry x="290" width="99" height="86" as="geometry">
            <mxRectangle width="99" height="86" as="alternateBounds" />
          </mxGeometry>
        </mxCell>
        <mxCell id="sXy-xs8lII_dAVy6hn8z-16" value="Number of neurons" style="shape=partialRectangle;html=1;whiteSpace=wrap;connectable=0;strokeColor=#d79b00;overflow=hidden;fillColor=#ffe6cc;top=0;left=0;bottom=0;right=0;pointerEvents=1;fontSize=16;fontStyle=1;" parent="sXy-xs8lII_dAVy6hn8z-13" vertex="1">
          <mxGeometry x="389" width="100" height="86" as="geometry">
            <mxRectangle width="100" height="86" as="alternateBounds" />
          </mxGeometry>
        </mxCell>
        <mxCell id="sXy-xs8lII_dAVy6hn8z-48" value="Validation error - Training Error" style="shape=partialRectangle;html=1;whiteSpace=wrap;connectable=0;strokeColor=#d79b00;overflow=hidden;fillColor=#ffe6cc;top=0;left=0;bottom=0;right=0;pointerEvents=1;fontSize=16;fontStyle=1;" parent="sXy-xs8lII_dAVy6hn8z-13" vertex="1">
          <mxGeometry x="489" width="141" height="86" as="geometry">
            <mxRectangle width="141" height="86" as="alternateBounds" />
          </mxGeometry>
        </mxCell>
        <mxCell id="sXy-xs8lII_dAVy6hn8z-238" value="Classifier Choice" style="shape=partialRectangle;html=1;whiteSpace=wrap;connectable=0;strokeColor=#d79b00;overflow=hidden;fillColor=#ffe6cc;top=0;left=0;bottom=0;right=0;pointerEvents=1;fontSize=16;fontStyle=1;" parent="sXy-xs8lII_dAVy6hn8z-13" vertex="1">
          <mxGeometry x="630" width="100" height="86" as="geometry">
            <mxRectangle width="100" height="86" as="alternateBounds" />
          </mxGeometry>
        </mxCell>
        <mxCell id="sXy-xs8lII_dAVy6hn8z-17" value="" style="shape=tableRow;horizontal=0;startSize=0;swimlaneHead=0;swimlaneBody=0;strokeColor=inherit;top=0;left=0;bottom=0;right=0;collapsible=0;dropTarget=0;fillColor=none;points=[[0,0.5],[1,0.5]];portConstraint=eastwest;fontSize=16;" parent="sXy-xs8lII_dAVy6hn8z-12" vertex="1">
          <mxGeometry y="116" width="730" height="89" as="geometry" />
        </mxCell>
        <mxCell id="sXy-xs8lII_dAVy6hn8z-39" value="A" style="shape=partialRectangle;html=1;whiteSpace=wrap;connectable=0;strokeColor=#d6b656;overflow=hidden;fillColor=#fff2cc;top=0;left=0;bottom=0;right=0;pointerEvents=1;fontSize=16;fontStyle=3" parent="sXy-xs8lII_dAVy6hn8z-17" vertex="1">
          <mxGeometry width="103" height="89" as="geometry">
            <mxRectangle width="103" height="89" as="alternateBounds" />
          </mxGeometry>
        </mxCell>
        <mxCell id="sXy-xs8lII_dAVy6hn8z-34" value="0.04" style="shape=partialRectangle;html=1;whiteSpace=wrap;connectable=0;strokeColor=#d6b656;overflow=hidden;fillColor=#fff2cc;top=0;left=0;bottom=0;right=0;pointerEvents=1;fontSize=16;" parent="sXy-xs8lII_dAVy6hn8z-17" vertex="1">
          <mxGeometry x="103" width="90" height="89" as="geometry">
            <mxRectangle width="90" height="89" as="alternateBounds" />
          </mxGeometry>
        </mxCell>
        <mxCell id="sXy-xs8lII_dAVy6hn8z-18" value="0.01" style="shape=partialRectangle;html=1;whiteSpace=wrap;connectable=0;strokeColor=#d6b656;overflow=hidden;fillColor=#fff2cc;top=0;left=0;bottom=0;right=0;pointerEvents=1;fontSize=16;" parent="sXy-xs8lII_dAVy6hn8z-17" vertex="1">
          <mxGeometry x="193" width="97" height="89" as="geometry">
            <mxRectangle width="97" height="89" as="alternateBounds" />
          </mxGeometry>
        </mxCell>
        <mxCell id="sXy-xs8lII_dAVy6hn8z-19" value="3" style="shape=partialRectangle;html=1;whiteSpace=wrap;connectable=0;strokeColor=#d6b656;overflow=hidden;fillColor=#fff2cc;top=0;left=0;bottom=0;right=0;pointerEvents=1;fontSize=16;" parent="sXy-xs8lII_dAVy6hn8z-17" vertex="1">
          <mxGeometry x="290" width="99" height="89" as="geometry">
            <mxRectangle width="99" height="89" as="alternateBounds" />
          </mxGeometry>
        </mxCell>
        <mxCell id="sXy-xs8lII_dAVy6hn8z-20" value="100" style="shape=partialRectangle;html=1;whiteSpace=wrap;connectable=0;strokeColor=#d6b656;overflow=hidden;fillColor=#fff2cc;top=0;left=0;bottom=0;right=0;pointerEvents=1;fontSize=16;" parent="sXy-xs8lII_dAVy6hn8z-17" vertex="1">
          <mxGeometry x="389" width="100" height="89" as="geometry">
            <mxRectangle width="100" height="89" as="alternateBounds" />
          </mxGeometry>
        </mxCell>
        <mxCell id="sXy-xs8lII_dAVy6hn8z-49" value="0.03" style="shape=partialRectangle;html=1;whiteSpace=wrap;connectable=0;strokeColor=#82b366;overflow=hidden;fillColor=#d5e8d4;top=0;left=0;bottom=0;right=0;pointerEvents=1;fontSize=16;" parent="sXy-xs8lII_dAVy6hn8z-17" vertex="1">
          <mxGeometry x="489" width="141" height="89" as="geometry">
            <mxRectangle width="141" height="89" as="alternateBounds" />
          </mxGeometry>
        </mxCell>
        <mxCell id="sXy-xs8lII_dAVy6hn8z-239" style="shape=partialRectangle;html=1;whiteSpace=wrap;connectable=0;strokeColor=#82b366;overflow=hidden;fillColor=#d5e8d4;top=0;left=0;bottom=0;right=0;pointerEvents=1;fontSize=16;" parent="sXy-xs8lII_dAVy6hn8z-17" vertex="1">
          <mxGeometry x="630" width="100" height="89" as="geometry">
            <mxRectangle width="100" height="89" as="alternateBounds" />
          </mxGeometry>
        </mxCell>
        <mxCell id="sXy-xs8lII_dAVy6hn8z-21" value="" style="shape=tableRow;horizontal=0;startSize=0;swimlaneHead=0;swimlaneBody=0;strokeColor=inherit;top=0;left=0;bottom=0;right=0;collapsible=0;dropTarget=0;fillColor=none;points=[[0,0.5],[1,0.5]];portConstraint=eastwest;fontSize=16;" parent="sXy-xs8lII_dAVy6hn8z-12" vertex="1">
          <mxGeometry y="205" width="730" height="85" as="geometry" />
        </mxCell>
        <mxCell id="sXy-xs8lII_dAVy6hn8z-40" value="B" style="shape=partialRectangle;html=1;whiteSpace=wrap;connectable=0;strokeColor=#d6b656;overflow=hidden;fillColor=#fff2cc;top=0;left=0;bottom=0;right=0;pointerEvents=1;fontSize=16;fontStyle=3" parent="sXy-xs8lII_dAVy6hn8z-21" vertex="1">
          <mxGeometry width="103" height="85" as="geometry">
            <mxRectangle width="103" height="85" as="alternateBounds" />
          </mxGeometry>
        </mxCell>
        <mxCell id="sXy-xs8lII_dAVy6hn8z-35" value="0.06" style="shape=partialRectangle;html=1;whiteSpace=wrap;connectable=0;strokeColor=#d6b656;overflow=hidden;fillColor=#fff2cc;top=0;left=0;bottom=0;right=0;pointerEvents=1;fontSize=16;" parent="sXy-xs8lII_dAVy6hn8z-21" vertex="1">
          <mxGeometry x="103" width="90" height="85" as="geometry">
            <mxRectangle width="90" height="85" as="alternateBounds" />
          </mxGeometry>
        </mxCell>
        <mxCell id="sXy-xs8lII_dAVy6hn8z-22" value="0.02" style="shape=partialRectangle;html=1;whiteSpace=wrap;connectable=0;strokeColor=#d6b656;overflow=hidden;fillColor=#fff2cc;top=0;left=0;bottom=0;right=0;pointerEvents=1;fontSize=16;" parent="sXy-xs8lII_dAVy6hn8z-21" vertex="1">
          <mxGeometry x="193" width="97" height="85" as="geometry">
            <mxRectangle width="97" height="85" as="alternateBounds" />
          </mxGeometry>
        </mxCell>
        <mxCell id="sXy-xs8lII_dAVy6hn8z-23" value="4" style="shape=partialRectangle;html=1;whiteSpace=wrap;connectable=0;strokeColor=#d6b656;overflow=hidden;fillColor=#fff2cc;top=0;left=0;bottom=0;right=0;pointerEvents=1;fontSize=16;" parent="sXy-xs8lII_dAVy6hn8z-21" vertex="1">
          <mxGeometry x="290" width="99" height="85" as="geometry">
            <mxRectangle width="99" height="85" as="alternateBounds" />
          </mxGeometry>
        </mxCell>
        <mxCell id="sXy-xs8lII_dAVy6hn8z-24" value="150" style="shape=partialRectangle;html=1;whiteSpace=wrap;connectable=0;strokeColor=#d6b656;overflow=hidden;fillColor=#fff2cc;top=0;left=0;bottom=0;right=0;pointerEvents=1;fontSize=16;" parent="sXy-xs8lII_dAVy6hn8z-21" vertex="1">
          <mxGeometry x="389" width="100" height="85" as="geometry">
            <mxRectangle width="100" height="85" as="alternateBounds" />
          </mxGeometry>
        </mxCell>
        <mxCell id="sXy-xs8lII_dAVy6hn8z-50" value="0.04" style="shape=partialRectangle;html=1;whiteSpace=wrap;connectable=0;strokeColor=#82b366;overflow=hidden;fillColor=#d5e8d4;top=0;left=0;bottom=0;right=0;pointerEvents=1;fontSize=16;" parent="sXy-xs8lII_dAVy6hn8z-21" vertex="1">
          <mxGeometry x="489" width="141" height="85" as="geometry">
            <mxRectangle width="141" height="85" as="alternateBounds" />
          </mxGeometry>
        </mxCell>
        <mxCell id="sXy-xs8lII_dAVy6hn8z-240" style="shape=partialRectangle;html=1;whiteSpace=wrap;connectable=0;strokeColor=#82b366;overflow=hidden;fillColor=#d5e8d4;top=0;left=0;bottom=0;right=0;pointerEvents=1;fontSize=16;" parent="sXy-xs8lII_dAVy6hn8z-21" vertex="1">
          <mxGeometry x="630" width="100" height="85" as="geometry">
            <mxRectangle width="100" height="85" as="alternateBounds" />
          </mxGeometry>
        </mxCell>
        <mxCell id="sXy-xs8lII_dAVy6hn8z-29" style="shape=tableRow;horizontal=0;startSize=0;swimlaneHead=0;swimlaneBody=0;strokeColor=inherit;top=0;left=0;bottom=0;right=0;collapsible=0;dropTarget=0;fillColor=none;points=[[0,0.5],[1,0.5]];portConstraint=eastwest;fontSize=16;" parent="sXy-xs8lII_dAVy6hn8z-12" vertex="1">
          <mxGeometry y="290" width="730" height="87" as="geometry" />
        </mxCell>
        <mxCell id="sXy-xs8lII_dAVy6hn8z-41" value="C" style="shape=partialRectangle;html=1;whiteSpace=wrap;connectable=0;strokeColor=#d6b656;overflow=hidden;fillColor=#fff2cc;top=0;left=0;bottom=0;right=0;pointerEvents=1;fontSize=16;fontStyle=3" parent="sXy-xs8lII_dAVy6hn8z-29" vertex="1">
          <mxGeometry width="103" height="87" as="geometry">
            <mxRectangle width="103" height="87" as="alternateBounds" />
          </mxGeometry>
        </mxCell>
        <mxCell id="sXy-xs8lII_dAVy6hn8z-36" value="0.07" style="shape=partialRectangle;html=1;whiteSpace=wrap;connectable=0;strokeColor=#d6b656;overflow=hidden;fillColor=#fff2cc;top=0;left=0;bottom=0;right=0;pointerEvents=1;fontSize=16;" parent="sXy-xs8lII_dAVy6hn8z-29" vertex="1">
          <mxGeometry x="103" width="90" height="87" as="geometry">
            <mxRectangle width="90" height="87" as="alternateBounds" />
          </mxGeometry>
        </mxCell>
        <mxCell id="sXy-xs8lII_dAVy6hn8z-30" value="0.04" style="shape=partialRectangle;html=1;whiteSpace=wrap;connectable=0;strokeColor=#d6b656;overflow=hidden;fillColor=#fff2cc;top=0;left=0;bottom=0;right=0;pointerEvents=1;fontSize=16;" parent="sXy-xs8lII_dAVy6hn8z-29" vertex="1">
          <mxGeometry x="193" width="97" height="87" as="geometry">
            <mxRectangle width="97" height="87" as="alternateBounds" />
          </mxGeometry>
        </mxCell>
        <mxCell id="sXy-xs8lII_dAVy6hn8z-31" value="3" style="shape=partialRectangle;html=1;whiteSpace=wrap;connectable=0;strokeColor=#d6b656;overflow=hidden;fillColor=#fff2cc;top=0;left=0;bottom=0;right=0;pointerEvents=1;fontSize=16;" parent="sXy-xs8lII_dAVy6hn8z-29" vertex="1">
          <mxGeometry x="290" width="99" height="87" as="geometry">
            <mxRectangle width="99" height="87" as="alternateBounds" />
          </mxGeometry>
        </mxCell>
        <mxCell id="sXy-xs8lII_dAVy6hn8z-32" value="120" style="shape=partialRectangle;html=1;whiteSpace=wrap;connectable=0;strokeColor=#d6b656;overflow=hidden;fillColor=#fff2cc;top=0;left=0;bottom=0;right=0;pointerEvents=1;fontSize=16;" parent="sXy-xs8lII_dAVy6hn8z-29" vertex="1">
          <mxGeometry x="389" width="100" height="87" as="geometry">
            <mxRectangle width="100" height="87" as="alternateBounds" />
          </mxGeometry>
        </mxCell>
        <mxCell id="sXy-xs8lII_dAVy6hn8z-51" value="0.03" style="shape=partialRectangle;html=1;whiteSpace=wrap;connectable=0;strokeColor=#82b366;overflow=hidden;fillColor=#d5e8d4;top=0;left=0;bottom=0;right=0;pointerEvents=1;fontSize=16;fontStyle=0" parent="sXy-xs8lII_dAVy6hn8z-29" vertex="1">
          <mxGeometry x="489" width="141" height="87" as="geometry">
            <mxRectangle width="141" height="87" as="alternateBounds" />
          </mxGeometry>
        </mxCell>
        <mxCell id="sXy-xs8lII_dAVy6hn8z-241" style="shape=partialRectangle;html=1;whiteSpace=wrap;connectable=0;strokeColor=#82b366;overflow=hidden;fillColor=#d5e8d4;top=0;left=0;bottom=0;right=0;pointerEvents=1;fontSize=16;fontStyle=0" parent="sXy-xs8lII_dAVy6hn8z-29" vertex="1">
          <mxGeometry x="630" width="100" height="87" as="geometry">
            <mxRectangle width="100" height="87" as="alternateBounds" />
          </mxGeometry>
        </mxCell>
        <mxCell id="sXy-xs8lII_dAVy6hn8z-25" style="shape=tableRow;horizontal=0;startSize=0;swimlaneHead=0;swimlaneBody=0;strokeColor=inherit;top=0;left=0;bottom=0;right=0;collapsible=0;dropTarget=0;fillColor=none;points=[[0,0.5],[1,0.5]];portConstraint=eastwest;fontSize=16;" parent="sXy-xs8lII_dAVy6hn8z-12" vertex="1">
          <mxGeometry y="377" width="730" height="87" as="geometry" />
        </mxCell>
        <mxCell id="sXy-xs8lII_dAVy6hn8z-42" value="D" style="shape=partialRectangle;html=1;whiteSpace=wrap;connectable=0;strokeColor=#d6b656;overflow=hidden;fillColor=#fff2cc;top=0;left=0;bottom=0;right=0;pointerEvents=1;fontSize=16;fontStyle=3" parent="sXy-xs8lII_dAVy6hn8z-25" vertex="1">
          <mxGeometry width="103" height="87" as="geometry">
            <mxRectangle width="103" height="87" as="alternateBounds" />
          </mxGeometry>
        </mxCell>
        <mxCell id="sXy-xs8lII_dAVy6hn8z-37" value="0.09" style="shape=partialRectangle;html=1;whiteSpace=wrap;connectable=0;strokeColor=#d6b656;overflow=hidden;fillColor=#fff2cc;top=0;left=0;bottom=0;right=0;pointerEvents=1;fontSize=16;" parent="sXy-xs8lII_dAVy6hn8z-25" vertex="1">
          <mxGeometry x="103" width="90" height="87" as="geometry">
            <mxRectangle width="90" height="87" as="alternateBounds" />
          </mxGeometry>
        </mxCell>
        <mxCell id="sXy-xs8lII_dAVy6hn8z-26" value="0.01" style="shape=partialRectangle;html=1;whiteSpace=wrap;connectable=0;strokeColor=#d6b656;overflow=hidden;fillColor=#fff2cc;top=0;left=0;bottom=0;right=0;pointerEvents=1;fontSize=16;" parent="sXy-xs8lII_dAVy6hn8z-25" vertex="1">
          <mxGeometry x="193" width="97" height="87" as="geometry">
            <mxRectangle width="97" height="87" as="alternateBounds" />
          </mxGeometry>
        </mxCell>
        <mxCell id="sXy-xs8lII_dAVy6hn8z-27" value="5" style="shape=partialRectangle;html=1;whiteSpace=wrap;connectable=0;strokeColor=#d6b656;overflow=hidden;fillColor=#fff2cc;top=0;left=0;bottom=0;right=0;pointerEvents=1;fontSize=16;" parent="sXy-xs8lII_dAVy6hn8z-25" vertex="1">
          <mxGeometry x="290" width="99" height="87" as="geometry">
            <mxRectangle width="99" height="87" as="alternateBounds" />
          </mxGeometry>
        </mxCell>
        <mxCell id="sXy-xs8lII_dAVy6hn8z-28" value="200" style="shape=partialRectangle;html=1;whiteSpace=wrap;connectable=0;strokeColor=#d6b656;overflow=hidden;fillColor=#fff2cc;top=0;left=0;bottom=0;right=0;pointerEvents=1;fontSize=16;" parent="sXy-xs8lII_dAVy6hn8z-25" vertex="1">
          <mxGeometry x="389" width="100" height="87" as="geometry">
            <mxRectangle width="100" height="87" as="alternateBounds" />
          </mxGeometry>
        </mxCell>
        <mxCell id="sXy-xs8lII_dAVy6hn8z-52" value="0.08" style="shape=partialRectangle;html=1;whiteSpace=wrap;connectable=0;strokeColor=#b85450;overflow=hidden;fillColor=#f8cecc;top=0;left=0;bottom=0;right=0;pointerEvents=1;fontSize=16;" parent="sXy-xs8lII_dAVy6hn8z-25" vertex="1">
          <mxGeometry x="489" width="141" height="87" as="geometry">
            <mxRectangle width="141" height="87" as="alternateBounds" />
          </mxGeometry>
        </mxCell>
        <mxCell id="sXy-xs8lII_dAVy6hn8z-242" style="shape=partialRectangle;html=1;whiteSpace=wrap;connectable=0;strokeColor=#b85450;overflow=hidden;fillColor=#f8cecc;top=0;left=0;bottom=0;right=0;pointerEvents=1;fontSize=16;" parent="sXy-xs8lII_dAVy6hn8z-25" vertex="1">
          <mxGeometry x="630" width="100" height="87" as="geometry">
            <mxRectangle width="100" height="87" as="alternateBounds" />
          </mxGeometry>
        </mxCell>
        <mxCell id="sXy-xs8lII_dAVy6hn8z-62" style="shape=tableRow;horizontal=0;startSize=0;swimlaneHead=0;swimlaneBody=0;strokeColor=inherit;top=0;left=0;bottom=0;right=0;collapsible=0;dropTarget=0;fillColor=none;points=[[0,0.5],[1,0.5]];portConstraint=eastwest;fontSize=16;" parent="sXy-xs8lII_dAVy6hn8z-12" vertex="1">
          <mxGeometry y="464" width="730" height="86" as="geometry" />
        </mxCell>
        <mxCell id="sXy-xs8lII_dAVy6hn8z-63" value="E" style="shape=partialRectangle;html=1;whiteSpace=wrap;connectable=0;strokeColor=#d6b656;overflow=hidden;fillColor=#fff2cc;top=0;left=0;bottom=0;right=0;pointerEvents=1;fontSize=16;fontStyle=3" parent="sXy-xs8lII_dAVy6hn8z-62" vertex="1">
          <mxGeometry width="103" height="86" as="geometry">
            <mxRectangle width="103" height="86" as="alternateBounds" />
          </mxGeometry>
        </mxCell>
        <mxCell id="sXy-xs8lII_dAVy6hn8z-64" value="0.12" style="shape=partialRectangle;html=1;whiteSpace=wrap;connectable=0;strokeColor=#d6b656;overflow=hidden;fillColor=#fff2cc;top=0;left=0;bottom=0;right=0;pointerEvents=1;fontSize=16;" parent="sXy-xs8lII_dAVy6hn8z-62" vertex="1">
          <mxGeometry x="103" width="90" height="86" as="geometry">
            <mxRectangle width="90" height="86" as="alternateBounds" />
          </mxGeometry>
        </mxCell>
        <mxCell id="sXy-xs8lII_dAVy6hn8z-65" value="0.02" style="shape=partialRectangle;html=1;whiteSpace=wrap;connectable=0;strokeColor=#d6b656;overflow=hidden;fillColor=#fff2cc;top=0;left=0;bottom=0;right=0;pointerEvents=1;fontSize=16;" parent="sXy-xs8lII_dAVy6hn8z-62" vertex="1">
          <mxGeometry x="193" width="97" height="86" as="geometry">
            <mxRectangle width="97" height="86" as="alternateBounds" />
          </mxGeometry>
        </mxCell>
        <mxCell id="sXy-xs8lII_dAVy6hn8z-66" value="4" style="shape=partialRectangle;html=1;whiteSpace=wrap;connectable=0;strokeColor=#d6b656;overflow=hidden;fillColor=#fff2cc;top=0;left=0;bottom=0;right=0;pointerEvents=1;fontSize=16;" parent="sXy-xs8lII_dAVy6hn8z-62" vertex="1">
          <mxGeometry x="290" width="99" height="86" as="geometry">
            <mxRectangle width="99" height="86" as="alternateBounds" />
          </mxGeometry>
        </mxCell>
        <mxCell id="sXy-xs8lII_dAVy6hn8z-67" value="160" style="shape=partialRectangle;html=1;whiteSpace=wrap;connectable=0;strokeColor=#d6b656;overflow=hidden;fillColor=#fff2cc;top=0;left=0;bottom=0;right=0;pointerEvents=1;fontSize=16;" parent="sXy-xs8lII_dAVy6hn8z-62" vertex="1">
          <mxGeometry x="389" width="100" height="86" as="geometry">
            <mxRectangle width="100" height="86" as="alternateBounds" />
          </mxGeometry>
        </mxCell>
        <mxCell id="sXy-xs8lII_dAVy6hn8z-68" value="0.10" style="shape=partialRectangle;html=1;whiteSpace=wrap;connectable=0;strokeColor=#b85450;overflow=hidden;fillColor=#f8cecc;top=0;left=0;bottom=0;right=0;pointerEvents=1;fontSize=16;" parent="sXy-xs8lII_dAVy6hn8z-62" vertex="1">
          <mxGeometry x="489" width="141" height="86" as="geometry">
            <mxRectangle width="141" height="86" as="alternateBounds" />
          </mxGeometry>
        </mxCell>
        <mxCell id="sXy-xs8lII_dAVy6hn8z-243" style="shape=partialRectangle;html=1;whiteSpace=wrap;connectable=0;strokeColor=#b85450;overflow=hidden;fillColor=#f8cecc;top=0;left=0;bottom=0;right=0;pointerEvents=1;fontSize=16;" parent="sXy-xs8lII_dAVy6hn8z-62" vertex="1">
          <mxGeometry x="630" width="100" height="86" as="geometry">
            <mxRectangle width="100" height="86" as="alternateBounds" />
          </mxGeometry>
        </mxCell>
        <mxCell id="sXy-xs8lII_dAVy6hn8z-69" value="Save Classifier" style="rounded=1;whiteSpace=wrap;html=1;fillColor=#d5e8d4;strokeColor=#82b366;arcSize=43;" parent="1" vertex="1">
          <mxGeometry x="440" y="700" width="200" height="60" as="geometry" />
        </mxCell>
        <mxCell id="sXy-xs8lII_dAVy6hn8z-73" value="Invalid Classifier" style="rounded=1;whiteSpace=wrap;html=1;fillColor=#f8cecc;strokeColor=#b85450;arcSize=43;" parent="1" vertex="1">
          <mxGeometry x="190" y="700" width="200" height="60" as="geometry" />
        </mxCell>
        <mxCell id="sXy-xs8lII_dAVy6hn8z-74" value="Overfitting threshold = 0.078" style="rounded=0;whiteSpace=wrap;html=1;" parent="1" vertex="1">
          <mxGeometry x="310" y="640" width="220" height="30" as="geometry" />
        </mxCell>
        <mxCell id="sXy-xs8lII_dAVy6hn8z-245" value="" style="html=1;shadow=0;dashed=0;shape=mxgraph.bootstrap.radioButton2;labelPosition=right;verticalLabelPosition=middle;align=left;verticalAlign=middle;gradientColor=#DEDEDE;fillColor=#EDEDED;checked=0;spacing=5;checkedFill=#0085FC;checkedStroke=#ffffff;sketch=0;" parent="1" vertex="1">
          <mxGeometry x="720" y="310" width="20" height="20" as="geometry" />
        </mxCell>
        <mxCell id="sXy-xs8lII_dAVy6hn8z-246" value="" style="html=1;shadow=0;dashed=0;shape=mxgraph.bootstrap.radioButton2;labelPosition=right;verticalLabelPosition=middle;align=left;verticalAlign=middle;gradientColor=#DEDEDE;fillColor=#EDEDED;checked=0;spacing=5;checkedFill=#0085FC;checkedStroke=#ffffff;sketch=0;" parent="1" vertex="1">
          <mxGeometry x="720" y="220" width="20" height="20" as="geometry" />
        </mxCell>
        <mxCell id="sXy-xs8lII_dAVy6hn8z-247" value="" style="html=1;shadow=0;dashed=0;shape=mxgraph.bootstrap.radioButton2;labelPosition=right;verticalLabelPosition=middle;align=left;verticalAlign=middle;gradientColor=#DEDEDE;fillColor=#EDEDED;checked=0;spacing=5;checkedFill=#0085FC;checkedStroke=#ffffff;sketch=0;" parent="1" vertex="1">
          <mxGeometry x="720" y="400" width="20" height="20" as="geometry" />
        </mxCell>
        <mxCell id="sXy-xs8lII_dAVy6hn8z-248" value="" style="html=1;shadow=0;dashed=0;shape=mxgraph.bootstrap.radioButton2;labelPosition=right;verticalLabelPosition=middle;align=left;verticalAlign=middle;gradientColor=#DEDEDE;fillColor=#EDEDED;checked=0;spacing=5;checkedFill=#0085FC;checkedStroke=#ffffff;sketch=0;" parent="1" vertex="1">
          <mxGeometry x="720" y="490" width="20" height="20" as="geometry" />
        </mxCell>
        <mxCell id="sXy-xs8lII_dAVy6hn8z-249" value="" style="html=1;shadow=0;dashed=0;shape=mxgraph.bootstrap.radioButton2;labelPosition=right;verticalLabelPosition=middle;align=left;verticalAlign=middle;gradientColor=#DEDEDE;fillColor=#EDEDED;checked=0;spacing=5;checkedFill=#0085FC;checkedStroke=#ffffff;sketch=0;" parent="1" vertex="1">
          <mxGeometry x="720" y="565" width="20" height="20" as="geometry" />
        </mxCell>
        <mxCell id="OTqZljWUa-QCWxbJi2Ku-8" value="" style="shape=ellipse;fillColor=#444444;strokeColor=none;html=1;" vertex="1" parent="1">
          <mxGeometry x="725.5" y="225.5" width="9" height="9" as="geometry" />
        </mxCell>
      </root>
    </mxGraphModel>
  </diagram>
</mxfile>
